<svg width="41" height="53" viewBox="0 0 41 53" fill="none" xmlns="http://www.w3.org/2000/svg">
<path d="M20.3188 0.0859375C14.9318 0.0921797 9.76719 2.28081 5.95799 6.17166C2.1488 10.0625 0.00611119 15.3379 0 20.8404C0 38.5996 18.4717 52.0121 19.259 52.5734C19.5696 52.7957 19.9396 52.9149 20.3188 52.9149C20.698 52.9149 21.068 52.7957 21.3786 52.5734C22.166 52.0121 40.6376 38.5996 40.6376 20.8404C40.6315 15.3379 38.4888 10.0625 34.6796 6.17166C30.8705 2.28081 25.7058 0.0921797 20.3188 0.0859375ZM20.3188 13.2933C21.7802 13.2933 23.2087 13.7359 24.4237 14.5652C25.6388 15.3945 26.5858 16.5732 27.1451 17.9522C27.7043 19.3313 27.8506 20.8487 27.5655 22.3127C27.2804 23.7767 26.5767 25.1215 25.5434 26.177C24.5101 27.2324 23.1935 27.9512 21.7603 28.2424C20.327 28.5336 18.8414 28.3842 17.4913 27.8129C16.1412 27.2417 14.9872 26.2744 14.1754 25.0333C13.3635 23.7922 12.9302 22.333 12.9302 20.8404C12.9302 18.8388 13.7086 16.9191 15.0942 15.5038C16.4799 14.0884 18.3592 13.2933 20.3188 13.2933Z" fill="black"/>
</svg>
