<svg width="99" height="98" viewBox="0 0 99 98" fill="none" xmlns="http://www.w3.org/2000/svg">
<path d="M98.5 49C98.5 76.062 76.562 98 49.5 98C22.438 98 0.5 76.062 0.5 49C0.5 21.938 22.438 0 49.5 0C76.562 0 98.5 21.938 98.5 49Z" fill="#272727"/>
<g clip-path="url(#clip0_1475_9310)">
<path d="M56.5127 58.2566L50.4628 74.8958C50.3138 75.2973 50.0454 75.6436 49.6939 75.8881C49.3423 76.1326 48.9243 76.2637 48.496 76.2637C48.0677 76.2637 47.6497 76.1326 47.2981 75.8881C46.9465 75.6436 46.6782 75.2973 46.5292 74.8958L40.4898 58.2566C40.3849 57.9703 40.2189 57.7104 40.0033 57.4948C39.7877 57.2792 39.5278 57.1132 39.2415 57.0083L22.6023 50.9584C22.2008 50.8094 21.8545 50.5411 21.61 50.1895C21.3654 49.8379 21.2344 49.4199 21.2344 48.9916C21.2344 48.5633 21.3654 48.1453 21.61 47.7937C21.8545 47.4422 22.2008 47.1738 22.6023 47.0248L39.2415 40.9854C39.5278 40.8805 39.7877 40.7145 40.0033 40.4989C40.2189 40.2833 40.3849 40.0234 40.4898 39.7371L46.5397 23.0979C46.6887 22.6964 46.957 22.3501 47.3086 22.1056C47.6602 21.861 48.0782 21.73 48.5065 21.73C48.9348 21.73 49.3528 21.861 49.7043 22.1056C50.0559 22.3501 50.3243 22.6964 50.4733 23.0979L56.5232 39.7371C56.6281 40.0234 56.7941 40.2833 57.0097 40.4989C57.2252 40.7145 57.4852 40.8805 57.7715 40.9854L74.4107 47.0353C74.8122 47.1843 75.1585 47.4526 75.403 47.8042C75.6475 48.1558 75.7786 48.5738 75.7786 49.0021C75.7786 49.4304 75.6475 49.8484 75.403 50.2C75.1585 50.5515 74.8122 50.8199 74.4107 50.9689L57.7715 57.0188C57.4843 57.1213 57.223 57.2851 57.0056 57.4989C56.7882 57.7126 56.62 57.9712 56.5127 58.2566Z" stroke="white" stroke-width="2" stroke-linecap="round" stroke-linejoin="round"/>
</g>
<defs>
<clipPath id="clip0_1475_9310">
<rect width="67.1339" height="67.1339" fill="white" transform="translate(14.9297 15.4331)"/>
</clipPath>
</defs>
</svg>
