<svg width="98" height="99" viewBox="0 0 98 99" fill="none" xmlns="http://www.w3.org/2000/svg">
<circle cx="49" cy="49.5" r="49" fill="#272727"/>
<g clip-path="url(#clip0_1475_9344)">
<path d="M43.7872 23.3081C42.4684 27.672 42.358 32.3119 43.468 36.7335C44.578 41.1551 46.8667 45.1928 50.0903 48.4164C53.3138 51.64 57.3515 53.9287 61.7731 55.0386C66.1948 56.1486 70.8347 56.0383 75.1985 54.7194C73.9334 58.8791 71.6126 62.6402 68.4621 65.6365C65.3116 68.6327 61.4388 70.762 57.2209 71.8169C53.003 72.8718 48.5838 72.8164 44.3938 71.656C40.2037 70.4956 36.3855 68.2699 33.3111 65.1955C30.2368 62.1212 28.011 58.303 26.8507 54.1129C25.6903 49.9228 25.6349 45.5036 26.6898 41.2857C27.7447 37.0679 29.8739 33.1951 32.8702 30.0446C35.8665 26.8941 39.6276 24.5732 43.7872 23.3081Z" stroke="white" stroke-width="2" stroke-linecap="round" stroke-linejoin="round"/>
</g>
<defs>
<clipPath id="clip0_1475_9344">
<rect width="67.1339" height="67.1339" fill="white" transform="translate(15.4297 15.9331)"/>
</clipPath>
</defs>
</svg>
